<svg width="254" height="66" viewBox="0 0 254 66" fill="none" xmlns="http://www.w3.org/2000/svg">
<g clip-path="url(#clip0_11996_55)">
<path d="M111 1.88571C111 0.844264 111.895 0 113 0H141C142.105 0 143 0.844264 143 1.88571V28.2857C143 29.3272 142.105 30.1714 141 30.1714H113C111.895 30.1714 111 29.3272 111 28.2857V1.88571Z" fill="#0278FE"/>
<path d="M143 5.65723H111V7.54294H143V5.65723Z" fill="#2A2C2F"/>
<path d="M124 5.65723H122V30.1715H124V5.65723Z" fill="#2A2C2F"/>
<path d="M118.313 65.0571L119.151 62.4321H123.952L124.79 65.0571H129.052L124.251 51.3428H118.853L114.052 65.0571H118.313ZM120.046 59.6463L121.495 55.1196H121.609L123.058 59.6463H120.046Z" fill="white"/>
<path d="M130.453 65.0571H134.402V60.5303H135.765L138.322 65.0571H142.612L139.657 59.941C141.206 59.2379 142.129 57.9053 142.129 56.0035C142.129 53.0839 139.963 51.3428 136.731 51.3428H130.453V65.0571ZM134.402 57.6375V54.316H135.794C137.179 54.316 138.01 54.8249 138.01 56.0035C138.01 57.1754 137.179 57.6375 135.794 57.6375H134.402Z" fill="white"/>
<path d="M143.414 54.3428H147.789V65.0571H151.681V54.3428H156.056V51.3428H143.414V54.3428Z" fill="white"/>
<path d="M170.973 55.8696H174.964C174.659 53.1173 172.01 51.1553 168.572 51.1553C164.652 51.1553 161.47 53.6999 161.47 58.2267C161.47 62.5659 164.354 65.2445 168.601 65.2445C172.408 65.2445 175.135 63.0481 175.135 59.2981V57.3963H168.686V60.0481H171.328C171.293 61.2401 170.398 62.0034 168.629 62.0034C166.584 62.0034 165.533 60.5838 165.533 58.1731C165.533 55.7958 166.669 54.3963 168.658 54.3963C169.893 54.3963 170.732 54.932 170.973 55.8696Z" fill="white"/>
<path d="M180.305 65.0571L181.143 62.4321H185.945L186.783 65.0571H191.044L186.243 51.3428H180.845L176.044 65.0571H180.305ZM182.038 59.6463L183.487 55.1196H183.601L185.05 59.6463H182.038Z" fill="white"/>
<path d="M192.445 65.0571H202.275V62.0571H196.394V51.3428H192.445V65.0571Z" fill="white"/>
<path d="M203.871 65.0571H213.7V62.0571H207.82V51.3428H203.871V65.0571Z" fill="white"/>
<path d="M215.297 65.0571H225.751V62.0571H219.245V59.7H225.24V56.6999H219.245V54.3428H225.779V51.3428H215.297V65.0571Z" fill="white"/>
<path d="M227.738 65.0571H231.687V60.5303H233.05L235.607 65.0571H239.897L236.942 59.941C238.491 59.2379 239.414 57.9053 239.414 56.0035C239.414 53.0839 237.248 51.3428 234.016 51.3428H227.738V65.0571ZM231.687 57.6375V54.316H233.079C234.464 54.316 235.295 54.8249 235.295 56.0035C235.295 57.1754 234.464 57.6375 233.079 57.6375H231.687Z" fill="white"/>
<path d="M239.817 51.3428L245.158 60.7446V65.0571H249.078V60.7446L254.419 51.3428H250.016L247.175 56.9142H247.061L244.221 51.3428H239.817Z" fill="white"/>
<path d="M108.637 51.3428V65.057H105.342L100.086 57.8517H100.001V65.057H96.0522V51.3428H99.4045L104.575 58.5213H104.689V51.3428H108.637Z" fill="white"/>
<path d="M83.6118 65.057V51.3428H94.0947V54.3428H87.5607V56.6999H93.555V59.6999H87.5607V62.057H94.0663V65.057H83.6118Z" fill="white"/>
<path d="M69.4839 54.3428V51.3428H82.1259V54.3428H77.7509V65.057H73.8589V54.3428H69.4839Z" fill="white"/>
<path d="M57.4399 65.057V51.3428H67.9229V54.3428H61.3888V56.6999H67.3831V59.6999H61.3888V62.057H67.8945V65.057H57.4399Z" fill="white"/>
<path d="M46.0137 65.057V51.3428H49.9625V62.057H55.8432V65.057H46.0137Z" fill="white"/>
<path d="M32.8887 65.057V51.3428H39.1671C40.2466 51.3428 41.1912 51.5437 42.0009 51.9455C42.8105 52.3472 43.4402 52.912 43.8901 53.6396C44.3399 54.3673 44.5648 55.2178 44.5648 56.191C44.5648 57.1731 44.3328 58.0236 43.8687 58.7423C43.4095 59.4611 42.7632 60.0146 41.9298 60.403C41.1012 60.7914 40.133 60.9856 39.025 60.9856H35.275V58.0928H38.2296C38.6936 58.0928 39.0889 58.0169 39.4156 57.8651C39.7471 57.7088 40.0004 57.4878 40.1756 57.2021C40.3555 56.9164 40.4455 56.5794 40.4455 56.191C40.4455 55.7981 40.3555 55.4633 40.1756 55.1865C40.0004 54.9053 39.7471 54.691 39.4156 54.5437C39.0889 54.3919 38.6936 54.316 38.2296 54.316H36.8375V65.057H32.8887Z" fill="white"/>
<path d="M31.0177 51.3428V65.057H27.0688V51.3428H31.0177Z" fill="white"/>
<path d="M13.7095 65.057V51.3428H19.9879C21.0674 51.3428 22.012 51.528 22.8217 51.8986C23.6313 52.2691 24.261 52.8026 24.7109 53.499C25.1607 54.1954 25.3856 55.0303 25.3856 56.0035C25.3856 56.9856 25.1536 57.8137 24.6896 58.4878C24.2303 59.1619 23.584 59.6709 22.7506 60.0146C21.922 60.3584 20.9538 60.5302 19.8458 60.5302H16.0958V57.6374H19.0504C19.5144 57.6374 19.9097 57.5838 20.2364 57.4767C20.5679 57.3651 20.8212 57.1887 20.9964 56.9477C21.1763 56.7066 21.2663 56.3919 21.2663 56.0035C21.2663 55.6106 21.1763 55.2914 20.9964 55.0459C20.8212 54.7959 20.5679 54.6129 20.2364 54.4968C19.9097 54.3762 19.5144 54.316 19.0504 54.316H17.6583V65.057H13.7095ZM22.2322 58.7624L25.8685 65.057H21.5788L18.0276 58.7624H22.2322Z" fill="white"/>
<path d="M-0.418457 54.3428V51.3428H12.2235V54.3428H7.84856V65.057H3.95653V54.3428H-0.418457Z" fill="white"/>
</g>
<defs>
<clipPath id="clip0_11996_55">
<rect width="254" height="66" fill="white"/>
</clipPath>
</defs>
</svg>
